
<svg  xmlns="http://www.w3.org/2000/svg" xmlns:xlink="http://www.w3.org/1999/xlink" x="0px" y="0px"
	 viewBox="0 0 80 44" style="enable-background:new 0 0 80 44;" xml:space="preserve">
<style type="text/css">
	.logo-sir0{fill:#663130;}
</style>
<g transform="translate(-173.98 -55.3)">
	<path  d="M184,93c-1.9,0-3.8-0.3-5.7-0.8c-1.6-0.4-3-1.1-4.4-2l1.9-4.2c1.2,0.8,2.4,1.4,3.7,1.8
		c1.4,0.5,2.9,0.7,4.4,0.7c0.9,0,1.8-0.1,2.7-0.3c0.6-0.2,1.1-0.5,1.5-0.9c0.3-0.4,0.5-0.9,0.5-1.3c0-0.6-0.3-1.2-0.8-1.5
		c-0.6-0.4-1.3-0.7-2-0.9c-0.8-0.2-1.8-0.5-2.8-0.7c-1-0.2-2-0.5-3.1-0.8c-1-0.3-1.9-0.7-2.8-1.2c-0.8-0.5-1.5-1.2-2.1-2
		c-0.6-1-0.8-2.1-0.8-3.2c0-1.3,0.4-2.7,1.1-3.8c0.9-1.2,2.1-2.2,3.5-2.7c1.8-0.7,3.8-1.1,5.8-1c1.5,0,3.1,0.2,4.6,0.5
		c1.4,0.3,2.7,0.9,4,1.6l-1.8,4.2c-1.1-0.6-2.2-1.1-3.4-1.4c-1.1-0.3-2.2-0.5-3.4-0.5c-0.9,0-1.8,0.1-2.7,0.4
		c-0.6,0.2-1.1,0.5-1.5,1c-0.3,0.4-0.5,0.9-0.5,1.4c0,0.6,0.3,1.2,0.8,1.5c0.6,0.4,1.3,0.7,2,0.9c0.8,0.2,1.8,0.5,2.8,0.7
		c1,0.2,2,0.5,3.1,0.8c1,0.3,1.9,0.7,2.8,1.2c0.8,0.5,1.5,1.2,2.1,2c0.6,0.9,0.8,2,0.8,3.1c0,1.3-0.4,2.6-1.2,3.7
		c-0.9,1.2-2.1,2.2-3.5,2.7C188,92.7,186,93.1,184,93z M198,92.6L198,74l5.5,0l0,18.5H198z M200.7,71.5c-0.9,0-1.8-0.3-2.5-0.9
		c-0.6-0.5-1-1.3-0.9-2.1c0-0.8,0.3-1.6,0.9-2.1c0.7-0.6,1.6-0.9,2.5-0.9c0.9,0,1.8,0.2,2.5,0.8c0.6,0.5,1,1.3,0.9,2.1
		c0,0.8-0.3,1.7-0.9,2.2C202.5,71.2,201.6,71.5,200.7,71.5L200.7,71.5z M208.5,92.6V74h5.2v5.2l-0.7-1.5c0.5-1.3,1.5-2.3,2.7-3
		c1.4-0.7,3-1.1,4.5-1v5c-0.2,0-0.4,0-0.6-0.1c-0.2,0-0.4,0-0.6,0c-1.3-0.1-2.6,0.4-3.6,1.3c-1,1-1.5,2.5-1.4,3.9v8.8H208.5z
		 M234.7,92.9c-1.5,0-2.9-0.3-4.2-1c-1.2-0.7-2.2-1.8-2.8-3.2c-0.7-1.7-1.1-3.5-1-5.4c-0.1-1.8,0.3-3.7,0.9-5.4
		c0.6-1.3,1.5-2.4,2.7-3.1c1.3-0.7,2.8-1.1,4.3-1c1.7,0,3.3,0.4,4.8,1.2c1.4,0.8,2.6,1.9,3.4,3.3c0.9,1.5,1.3,3.3,1.2,5
		c0,1.8-0.4,3.5-1.2,5.1c-0.8,1.4-2,2.5-3.4,3.3C238.1,92.5,236.4,92.9,234.7,92.9L234.7,92.9z M223.6,99.3V74h5.2v3.8l-0.1,5.5
		l0.4,5.5v10.5H223.6z M233.8,88.5c0.9,0,1.7-0.2,2.4-0.6c0.7-0.4,1.3-1,1.7-1.8c0.5-0.8,0.7-1.8,0.7-2.7c0-1-0.2-1.9-0.7-2.8
		c-0.4-0.7-1-1.3-1.7-1.8c-0.7-0.4-1.6-0.6-2.4-0.6c-0.9,0-1.7,0.2-2.5,0.6c-0.7,0.4-1.3,1-1.7,1.8c-0.4,0.9-0.7,1.8-0.6,2.8
		c0,1,0.2,1.9,0.6,2.7c0.4,0.7,1,1.4,1.7,1.8C232.1,88.3,232.9,88.5,233.8,88.5z M247.9,92.6L247.8,74l5.5,0l0,18.5H247.9z
		 M250.6,71.5c-0.9,0-1.8-0.3-2.5-0.9c-0.6-0.5-1-1.3-0.9-2.1c0-0.8,0.3-1.6,0.9-2.1c0.7-0.6,1.6-0.9,2.5-0.9c0.9,0,1.8,0.2,2.5,0.8
		c0.6,0.5,1,1.3,0.9,2.1c0,0.8-0.3,1.7-0.9,2.2C252.4,71.2,251.5,71.5,250.6,71.5L250.6,71.5z"/>
	<g transform="translate(244.762 55.3) rotate(90)">
		<path  class="logo-sir0" d="M6.4,13.6c1.6-0.6,3.3-0.9,5-0.9c1.7,0,3.3,0.3,4.9,0.9v0.2c-1.2-0.4-2.5-0.6-3.8-0.6
			c-2,0-3.9,0.4-5.6,1.3C6.8,14.2,6.6,13.9,6.4,13.6 M16.4,23.6c-6,2.2-12.7,0.2-16.4-5c1.4-2,3.3-3.5,5.5-4.5
			c0.2,0.3,0.4,0.6,0.6,0.9c-1.6,0.9-3,2.2-4.1,3.7c3.3,4.5,9.1,6.5,14.4,4.8V23.6z"/>
		<path class="logo-sir0" d="M10.9,6.8c1.7,0.3,3.4,0.9,4.9,1.7c0.2,0.1,0.4,0.3,0.6,0.4v0.5c-1.7-1-3.6-1.5-5.5-1.7
			C10.9,7.4,10.9,7.1,10.9,6.8 M16.4,20.6C9.3,20.3,3.6,14.9,2.9,7.8c2.2-1,4.6-1.4,7-1.2c0,0.4,0.1,0.7,0.1,1.1
			c-1.8,0-3.6,0.4-5.3,1.2C5.2,15.1,10.2,20,16.4,20.6L16.4,20.6z"/>
		<path class="logo-sir0" d="M16.4,18c-6.2-3.7-8.6-11.4-5.7-18c2,0.2,3.9,0.8,5.7,1.8v1.3c-1.5-0.8-3-1.2-4.7-1.4
			C9.1,7.6,11.1,14.4,16.4,18L16.4,18z"/>
		<path class="logo-sir0" d="M15,20.1c0.5-0.4,0.9-0.7,1.4-1v0.1c-0.4,0.3-0.9,0.6-1.3,1C15.1,20.1,15,20.1,15,20.1
			 M9.6,29.1c0.6-3.5,2.4-6.6,5.2-8.8c0.1,0,0.1,0,0.2,0c-2.6,2.2-4.1,5.4-4.4,8.8C10.3,29.1,10,29.1,9.6,29.1 M16.4,35.3
			c-1.7,1-3.7,1.6-5.7,1.8c-1-2.2-1.4-4.6-1.2-7c0.4,0,0.7-0.1,1.1-0.1c0,1.8,0.4,3.7,1.1,5.4c1.6-0.2,3.2-0.6,4.7-1.4V35.3z"/>
		<path class="logo-sir0" d="M15,16.7c0.5-0.1,0.9-0.1,1.4-0.1v0.1c-0.4,0-0.8,0.1-1.2,0.2L15,16.7 M5.9,21.8
			c1.1-1.4,2.4-2.5,3.9-3.4c1.5-0.9,3.2-1.5,5-1.7c0,0,0.1,0.1,0.1,0.1c-1.4,0.3-2.7,0.8-3.9,1.5c-1.7,1-3.2,2.3-4.3,4
			C6.5,22.1,6.2,22,5.9,21.8 M16.4,28.3c-0.2,0.1-0.4,0.3-0.6,0.4c-3.9,2.3-8.7,2.5-12.9,0.6c0.2-2.4,1.1-4.7,2.4-6.6
			c0.3,0.2,0.6,0.3,1,0.4c-0.9,1.6-1.5,3.4-1.7,5.2c3.8,1.7,8.2,1.5,11.8-0.6L16.4,28.3z"/>
	</g>
</g>
</svg>
